<?xml version="1.0" encoding="utf-8"?>
<svg viewBox="0 0 671 830" width="671px" height="830px" fill="none" xmlns="http://www.w3.org/2000/svg">
  <rect width="315.134" height="830" style="stroke: rgb(0, 0, 0); fill: rgb(239, 246, 255); stroke-width: 0px;" x="387.629"/>
  <path d="M 573.677 0 L 102.293 0 C 46.236 0 0.793 45.498 0.793 101.622 L 0.793 728.378 C 0.793 784.502 46.236 830 102.293 830 L 471.678 830 C 527.732 830 573.407 784.54 576.686 728.486 C 581.99 637.818 595.317 506.103 628.824 416.826 C 639.932 387.232 655.642 339.083 664.155 285.582 C 672.669 232.075 673.976 173.261 656.321 122.311 C 635.084 61.028 614.338 30.444 598.946 15.186 C 591.253 7.56 584.899 3.765 580.492 1.876 C 578.288 0.931 576.568 0.463 575.408 0.23 C 574.828 0.113 574.388 0.056 574.096 0.028 C 573.951 0.013 573.842 0.007 573.772 0.003 C 573.737 0.001 573.712 0.001 573.696 0 L 573.68 0 L 573.678 0 L 573.677 0 Z" fill="#324E7B" style="stroke: rgb(255, 0, 0); stroke-width: 0px;"/>
</svg>